PathFileType	4	(X/Y/Z)	C:\Users\Basilio\Documents\Thesis Gigler\squatting_fais\c3dfiles\054\SLS_front_pre4\markers_experimental.trc
DataRate	CameraRate	NumFrames	NumMarkers	Units	OrigDataRate	OrigDataStartFrame	OrigNumFrames
200.000000	200.000000	4	61	mm	200.000000	0	1421
Frame#	Time	FHD			LBHD			RBHD			C7			T10			CLAV			LSHO			LUUPA			LMUPA			LDUPA			LLEP			LMEP			LRAD			LUL			LRFIN			RSHO			RUPA1			RMUPA			RDUPA			RLEP			RMEP			RRAD			RUL			RUFIN			LASI			RASI			USACR			LSACR			RSACR			LTHI1			LTHI2			LTHI3			LTHI4			LLFC			LMFC			LTIB1			LTIB2			LTIB3			LTIB4			LLMAL			LMMAL			LHEE			LMT1			LMT2			LMT5			RTHI			RTHI2			RTHI3			RTHI4			RLFC			RMFC			RTIB1			RTIB2			RTIB3			RTIB4			RLMAL			RMMAL			RHEE			RMT1			RMT2			RMT5			
		X1	Y1	Z1	X2	Y2	Z2	X3	Y3	Z3	X4	Y4	Z4	X5	Y5	Z5	X6	Y6	Z6	X7	Y7	Z7	X8	Y8	Z8	X9	Y9	Z9	X10	Y10	Z10	X11	Y11	Z11	X12	Y12	Z12	X13	Y13	Z13	X14	Y14	Z14	X15	Y15	Z15	X16	Y16	Z16	X17	Y17	Z17	X18	Y18	Z18	X19	Y19	Z19	X20	Y20	Z20	X21	Y21	Z21	X22	Y22	Z22	X23	Y23	Z23	X24	Y24	Z24	X25	Y25	Z25	X26	Y26	Z26	X27	Y27	Z27	X28	Y28	Z28	X29	Y29	Z29	X30	Y30	Z30	X31	Y31	Z31	X32	Y32	Z32	X33	Y33	Z33	X34	Y34	Z34	X35	Y35	Z35	X36	Y36	Z36	X37	Y37	Z37	X38	Y38	Z38	X39	Y39	Z39	X40	Y40	Z40	X41	Y41	Z41	X42	Y42	Z42	X43	Y43	Z43	X44	Y44	Z44	X45	Y45	Z45	X46	Y46	Z46	X47	Y47	Z47	X48	Y48	Z48	X49	Y49	Z49	X50	Y50	Z50	X51	Y51	Z51	X52	Y52	Z52	X53	Y53	Z53	X54	Y54	Z54	X55	Y55	Z55	X56	Y56	Z56	X57	Y57	Z57	X58	Y58	Z58	X59	Y59	Z59	X60	Y60	Z60	X61	Y61	Z61	

1	0	-221.2858428955079	1813.903198242188	-938.4855957031252	-368.1347656250001	1722.915649414063	-1002.623413085938	-378.4516601562501	1718.46923828125	-862.6140747070315	-384.757293701172	1553.403686523438	-920.068542480469	-373.1042175292969	1224.88818359375	-924.2531738281252	-234.0959930419922	1519.018920898438	-933.2962646484377	-329.9701538085938	1544.430053710938	-1090.088745117188	-303.0320739746094	1327.817749023438	-1217.867919921875	-253.827865600586	1327.22314453125	-1215.091430664063	-266.5848693847657	1270.426635742188	-1229.899169921875	-231.546615600586	1230.77880859375	-1235.927001953125	-263.6610412597657	1190.822998046875	-1171.718017578125	-43.30058288574219	1044.728393554688	-1211.185668945313	-73.4350051879883	1017.891662597656	-1277.901489257813	22.00327110290528	986.9468383789065	-1242.4365234375	-292.9374389648438	1547.872314453125	-763.3602294921876	-238.7293395996094	1329.420654296875	-640.3515625000001	-191.6093444824219	1323.934448242188	-649.7658691406251	-208.0475006103516	1267.00634765625	-633.7791137695314	-186.6255950927735	1231.676879882813	-636.5430297851564	-226.6363525390626	1200.014282226563	-696.3163452148439	18.11923599243164	1043.870361328125	-687.4961547851564	-30.37650299072266	1018.5322265625	-629.3875122070314	72.62832641601564	987.3291625976565	-663.1680297851564	-177.337142944336	1068.692138671875	-1049.557861328125	-177.7901763916016	1065.503173828125	-796.072448730469	-368.6564941406251	1141.095581054688	-923.6968383789065	-373.2020263671876	1109.805053710938	-952.8607177734377	-371.1321105957032	1107.444946289063	-896.392761230469	-267.9733886718751	827.242126464844	-1139.2900390625	-238.864242553711	747.2469482421876	-1135.509765625	-192.3984375000001	750.3108520507814	-1128.137329101563	-269.6491394042969	695.7783813476564	-1120.829956054688	-276.3064270019532	540.5061035156251	-1100.709106445313	-245.0868530273438	532.5916137695314	-966.0136718750002	-245.8323211669922	373.0753784179688	-1053.749267578125	-299.9418640136719	331.2368774414063	-1112.352172851563	-261.1938781738282	325.9685363769532	-1086.725341796875	-271.1191101074219	248.1299285888672	-1054.345703125	-337.9662475585938	117.345703125	-1094.798583984375	-306.2749938964844	134.8291168212891	-1004.033569335938	-408.6289978027345	106.7209701538086	-1037.102905273438	-198.2215423583985	57.33716964721681	-1017.094665527344	-189.8235168457032	55.61920547485353	-1066.333374023438	-242.5264587402344	41.56670761108399	-1117.6162109375	-287.2884826660157	766.5112915039064	-713.5390014648439	-255.787338256836	707.8483886718751	-708.4942016601564	-222.4133758544922	705.8607177734376	-711.3448486328126	-290.2174987792969	633.3408203125001	-724.7381591796876	-307.6895751953126	542.9086914062501	-723.2715454101564	-251.1612548828126	529.7703247070314	-849.9285888671877	-257.5745544433594	431.6322326660157	-719.2548828125001	-333.4363403320313	365.6570739746094	-683.6912231445314	-288.5346374511719	355.5949096679688	-689.8621215820314	-275.3377075195313	302.4115905761719	-709.1473388671876	-345.5017395019532	129.9113006591797	-677.1483764648439	-303.1756286621094	139.107406616211	-762.8181152343751	-407.8417053222657	106.4854507446289	-735.0534057617189	-190.7843475341797	52.75365829467775	-740.7698974609376	-190.2629547119141	51.5641441345215	-692.8114624023439	-241.7867736816407	39.44187927246094	-646.1188354492189	
2	0.005	-221.3317413330079	1813.797729492188	-939.368347167969	-368.4170532226563	1723.002563476563	-1003.439636230469	-378.7191162109376	1718.564575195313	-863.5435791015627	-385.0835266113282	1553.454711914063	-920.7993164062502	-373.5319213867188	1224.942993164063	-925.1138305664065	-234.4070739746094	1518.972534179688	-934.2362060546877	-330.4020080566407	1544.648315429688	-1090.786743164063	-302.1929321289063	1328.57763671875	-1218.8759765625	-253.5700836181641	1328.27490234375	-1216.016967773438	-265.4246520996094	1271.472290039063	-1231.253173828125	-230.1764831542969	1232.011108398438	-1237.218627929688	-262.1404418945313	1191.6728515625	-1173.30126953125	-40.33342361450196	1047.75439453125	-1212.686401367188	-69.75119781494142	1020.400756835938	-1279.479248046875	25.78532218933106	990.5026855468752	-1243.9619140625	-293.1355590820313	1547.964477539063	-764.3769531250001	-237.3623504638672	1329.83935546875	-641.3861083984376	-190.8355102539063	1324.799438476563	-650.3504028320314	-206.5830535888672	1267.927124023438	-634.3514404296876	-184.89111328125	1232.565307617188	-636.8896484375001	-224.6700592041016	1200.733520507813	-696.9014892578126	21.49178314208985	1046.704345703125	-687.6265258789064	-26.62137031555176	1020.835327148438	-629.8220825195314	76.63403320312501	990.7209472656252	-663.1087036132814	-177.4444885253907	1068.590942382813	-1050.533813476563	-178.1414489746094	1065.68994140625	-796.8650512695315	-369.2688293457032	1141.057006835938	-924.3032226562502	-373.8049926757813	1109.768310546875	-953.5317993164065	-371.5333557128907	1107.296875	-897.0593261718752	-267.9316406250001	827.091979980469	-1140.000244140625	-238.5786743164063	747.1809692382814	-1136.232055664063	-192.1663208007813	750.2521362304689	-1128.882080078125	-269.2778320312501	695.5930175781251	-1121.497314453125	-275.6069946289063	540.3016357421876	-1101.158447265625	-244.5221710205079	532.5598754882814	-966.4416503906252	-245.4478149414063	372.9065551757813	-1054.157592773438	-300.6532592773438	331.0118408203126	-1112.92236328125	-260.6984252929688	325.8364562988282	-1087.063720703125	-270.9014282226563	248.1368408203126	-1054.466186523438	-337.9886779785157	117.3438415527344	-1094.824096679688	-306.2111816406251	134.8440551757813	-1004.095031738281	-408.5828857421876	106.7323684692383	-1037.11962890625	-198.2367706298829	57.36026763916017	-1017.088073730469	-189.8091278076172	55.6224708557129	-1066.334594726563	-242.5207824707032	41.56265258789063	-1117.618041992188	-287.3129882812501	766.6392211914064	-714.0374145507814	-255.6674194335938	707.9891967773439	-708.8330078125001	-222.3026885986329	706.1730957031251	-711.7752075195314	-290.0092773437501	633.4843139648439	-724.9869995117189	-307.1047668457032	542.9496459960939	-723.5354003906251	-251.8578338623047	529.7515258789064	-849.7105712890627	-257.1709289550782	431.6359863281251	-719.3747558593751	-333.1865234375001	365.7598876953126	-683.7302246093751	-288.1021118164063	355.6741027832032	-690.0015869140626	-275.0268859863282	302.4084472656251	-709.1378173828126	-345.4266967773438	129.9928741455078	-677.0737915039064	-303.0709228515626	139.3075256347657	-762.7463378906251	-407.7390747070314	106.649528503418	-734.8864746093751	-190.7642822265625	52.74142074584962	-740.7109375000001	-190.2523498535157	51.54566955566408	-692.7861328125001	-241.7486724853516	39.40577697753907	-646.0954589843751	
3	0.01	-221.4906005859376	1813.7978515625	-940.1426391601565	-368.4828186035157	1723.068725585938	-1004.228332519531	-378.9667968750001	1718.724975585938	-864.3735961914065	-385.485565185547	1553.492919921875	-921.6219482421877	-373.9142456054688	1224.889770507813	-925.9694824218752	-234.785873413086	1519.03955078125	-935.1519165039065	-330.9132385253907	1544.906616210938	-1091.564575195313	-301.6449279785157	1329.085571289063	-1219.748779296875	-253.9007720947266	1329.701416015625	-1217.314086914063	-264.5667419433594	1272.616821289063	-1232.384887695313	-228.7352905273438	1233.244018554688	-1238.724609375	-260.5998229980469	1192.644897460938	-1174.807495117188	-37.03831863403321	1050.837646484375	-1213.933349609375	-67.7531204223633	1023.489440917969	-1280.701538085938	29.17327880859376	993.8740844726565	-1245.338012695313	-293.3327941894532	1548.065307617188	-765.2076416015626	-236.6427764892579	1330.572998046875	-642.0640869140626	-189.6041259765625	1325.954956054688	-651.1870727539064	-204.9747772216797	1268.810913085938	-635.0286865234376	-183.1109771728516	1233.842529296875	-637.5779418945314	-222.6101074218751	1201.409057617188	-697.4326782226564	25.02567672729493	1049.593872070313	-687.9959106445314	-23.21717262268067	1023.344665527344	-630.1359252929689	80.79689025878908	994.237243652344	-663.2800903320314	-177.6905670166016	1068.69091796875	-1051.414306640625	-178.5667724609375	1065.912231445313	-797.622009277344	-369.6470031738282	1140.99267578125	-925.2527465820315	-374.2055664062501	1109.625122070313	-954.3753051757815	-371.9447631835938	1107.317260742188	-898.022888183594	-267.9553833007813	826.949401855469	-1140.791137695313	-238.3047485351563	747.0781860351564	-1136.808349609375	-191.9538269042969	750.2045898437501	-1129.486572265625	-268.9579772949219	695.3972778320314	-1122.003295898438	-275.4345397949219	540.0356445312501	-1101.488647460938	-244.0674591064454	532.4646606445314	-966.9561767578127	-244.7565307617188	372.6164245605469	-1054.617919921875	-300.2787475585938	330.8974609375001	-1113.162353515625	-260.3661499023438	325.6877441406251	-1087.351440429688	-270.6522827148438	247.9653625488282	-1054.659301757813	-337.9262390136719	117.3053283691407	-1094.879272460938	-306.2650146484376	134.8590087890625	-1004.117553710938	-408.5811767578126	106.7088775634766	-1037.117919921875	-198.2188415527344	57.36520004272462	-1017.091186523438	-189.7963562011719	55.62351989746095	-1066.326782226563	-242.5759887695313	41.56037902832032	-1117.587280273438	-287.2596435546876	766.8071899414064	-714.4321289062501	-255.5448455810547	708.2266235351564	-709.2539672851564	-222.2678985595704	706.3374633789064	-712.1368408203126	-289.8226318359376	633.6165161132814	-725.3241577148439	-306.7360839843751	543.0222778320314	-723.6973876953126	-250.1262969970704	529.7100219726564	-850.254577636719	-256.6873168945313	431.7733764648439	-719.5205688476564	-332.9273376464844	365.9471130371094	-683.8156127929689	-287.6763610839844	355.7588195800782	-690.0946044921876	-274.6659851074219	302.5023193359376	-709.1303100585939	-345.3417053222657	130.08544921875	-677.0226440429689	-302.8368835449219	139.4352722167969	-762.6585693359376	-407.6978759765626	106.7711868286133	-734.7918090820314	-190.7777252197266	52.74077224731447	-740.6392822265626	-190.2160186767578	51.50942993164064	-692.7711791992189	-241.7456207275391	39.37145996093751	-646.0826416015626	
4	0.015	-221.4773559570313	1813.692504882813	-940.8680419921877	-368.5674743652344	1723.2138671875	-1005.201721191406	-379.1956176757813	1718.8173828125	-865.1823730468752	-385.808074951172	1553.487670898438	-922.3970947265627	-374.5173339843751	1224.945190429688	-926.7464599609377	-235.1533203125001	1518.99462890625	-936.0666503906252	-331.4093933105469	1545.107177734375	-1092.38427734375	-301.1119384765626	1329.763916015625	-1220.896362304688	-253.2739562988282	1330.779541015625	-1218.451293945313	-263.5946044921876	1273.503662109375	-1233.710571289063	-227.2579193115235	1234.627075195313	-1240.151611328125	-258.6273803710938	1193.393676757813	-1176.454956054688	-34.03973007202149	1053.763671875	-1215.570556640625	-64.45114898681642	1026.350952148438	-1282.231201171875	32.71875000000001	997.6066894531252	-1246.801879882813	-293.5179443359376	1548.048828125	-766.2487182617189	-235.5812377929688	1331.28369140625	-642.8920288085939	-188.856185913086	1326.862426757813	-651.7315063476564	-203.4678802490235	1269.632080078125	-635.7634277343751	-181.0770263671875	1234.775756835938	-638.1696777343751	-220.3029022216797	1201.976440429688	-698.0444335937501	28.94740295410157	1052.797607421875	-688.3463745117189	-19.51045799255371	1025.819946289063	-630.5390014648439	84.83101654052736	997.7954711914065	-663.2848510742189	-178.0965118408203	1068.61669921875	-1052.223266601563	-178.9466552734375	1066.0908203125	-798.5090942382815	-370.0244140625001	1140.880004882813	-926.069763183594	-374.5229187011719	1109.557739257813	-955.2275390625002	-372.3457641601563	1107.241821289063	-898.6912841796877	-267.9881896972657	826.8055419921877	-1141.378784179688	-238.2822723388672	747.1688232421876	-1137.3994140625	-191.3576049804688	750.0292968750001	-1129.907348632813	-268.6549682617188	695.2541503906251	-1122.605102539063	-274.8356323242188	539.8777465820314	-1102.108154296875	-243.6759643554688	532.4489746093751	-967.6076660156252	-244.5291900634766	372.4890747070313	-1054.863891601563	-298.8668518066407	330.7621765136719	-1113.20556640625	-259.8425292968751	325.4719238281251	-1087.744140625	-270.6018371582032	247.827377319336	-1054.88427734375	-337.9892272949219	117.2575378417969	-1094.895751953125	-306.2494812011719	134.8683166503907	-1004.123229980469	-408.5468750000001	106.6667098999024	-1037.13427734375	-198.1954040527344	57.40003967285158	-1017.090698242188	-189.8086547851563	55.61999130249025	-1066.341674804688	-242.5332641601563	41.5559310913086	-1117.622924804688	-287.2811584472657	767.0030517578126	-715.0475463867189	-255.3689270019532	708.4418334960939	-709.7105712890626	-222.2307891845704	706.5340576171876	-712.4548339843751	-289.6574401855469	633.7139892578126	-725.6671142578126	-306.1782226562501	543.0909423828126	-723.9070434570314	-249.655502319336	529.6917114257814	-850.3706054687502	-256.2920532226563	431.8094177246095	-719.7141113281251	-332.5162048339844	366.2126464843751	-684.0101318359376	-287.2432861328126	356.0013427734376	-690.1718750000001	-274.3383789062501	302.6727294921876	-709.1536254882814	-345.1924438476563	130.1776123046875	-676.9397583007814	-302.6940002441407	139.5747375488282	-762.6015014648439	-407.6355895996095	106.9104537963867	-734.7280273437501	-190.8269348144532	52.70825576782228	-740.6335449218751	-190.1739959716797	51.49438858032228	-692.7492065429689	-241.7306671142579	39.35068511962891	-646.0460815429689	
